{"title":"Warcraft (2016) 720p WebHD x264 Hindi - dubbed AC3 2.0 -DDR","uid":15505461,"size":1583329658,"categoryP":"video","categoryS":"hd___movies","magnet":"?xt=urn:btih:a615c63e4f9a731c18d78de767ac10b917b7a852&amp;dn=Warcraft+%282016%29+720p+WebHD+x264+Hindi+-+dubbed+AC3+2.0+-DDR&amp;tr=udp%3A%2F%2Ftracker.leechers-paradise.org%3A6969&amp;tr=udp%3A%2F%2Fzer0day.ch%3A1337&amp;tr=udp%3A%2F%2Fopen.demonii.com%3A1337&amp;tr=udp%3A%2F%2Ftracker.coppersurfer.tk%3A6969&amp;tr=udp%3A%2F%2Fexodus.desync.com%3A6969","seeders":22,"leechers":18,"uploader":"SaM","files":3,"time":1470572862,"description":"\n720p Web-HD Rip x264\r\n\r\nHindi AC3 Stereo\r\n\r\n\r\n\r\nHindi - Cleaned and enhanced Line Audio \r\n \nhttp://extraimago.com/image/wTO5 \nhttp://extraimago.com/image/wTOg \nhttp://extraimago.com/image/wTOX \nhttp://extraimago.com/image/wTOP \nhttp://extraimago.com/image/wTOG \nhttp://extraimago.com/image/wTOr \nhttp://extraimago.com/image/wTOp \nhttp://extraimago.com/image/wTOY \nhttp://extraimago.com/image/wTOC \nhttp://extraimago.com/image/wTOB \nhttp://extraimago.com/image/wTO4 \nhttp://extraimago.com/image/wTOe \nhttp://extraimago.com/image/wTOZ \nhttp://extraimago.com/image/wTOK \nhttp://extraimago.com/image/wTOJ\r\n\r\nSpecs:\r\nSource: Web-HD @ HDC\r\n\r\nFormat : Matroska\r\nFormat version : Version 4 / Version 2\r\nFile size : 1.45 GiB\r\nDuration : 1h 58mn\r\nOverall bit rate : 1 761 Kbps\r\nEncoded date : UTC 2016-08-06 22:43:03\r\n\r\nVideo\r\nFFormat : AVC\r\nFormat/Info : Advanced Video Codec\r\nFormat profile :   \r\nFormat settings, CABAC : Yes\r\nFormat settings, ReFrames : 12 frames\r\nCodec ID : V_MPEG4/ISO/AVC\r\nDuration : 1h 58mn\r\nBit rate : 1 521 Kbps\r\nWidth : 1 280 pixels\r\nHeight : 524 pixels\r\nDisplay aspect ratio : 2.40:1\r\nFrame rate mode : Constant\r\nFrame rate : 25.000 fps\r\nColor space : YUV\r\nChroma subsampling : 4:2:0\r\nBit depth : 8 bits\r\nScan type : Progressive\r\nBits/(Pixel*Frame) : 0.091\r\nStream size : 1.25 GiB (86%)\r\n\r\nAudio #1\r\nFormat : AC-3\r\nFormat/Info : Audio Coding 3\r\nMode extension : CM (complete main)\r\nFormat settings, Endianness : Big\r\nCodec ID : A_AC3\r\nDuration : 1h 49mn\r\nBit rate mode : Constant\r\nBit rate : 256 Kbps\r\nChannel(s) : 2 channels\r\nChannel positions : Front: L R\r\nSampling rate : 44.1 KHz\r\nFrame rate : 28.711 fps (1536 spf)\r\nCompression mode : Lossy\r\nStream size : 201 MiB (13%)\r\nLanguage : Hindi\r\nDefault : Yes\r\nForced : No\r\n\r\nChapters : None\r\n\r\nSAMPLE Included","torrent":{"xt":"urn:btih:a615c63e4f9a731c18d78de767ac10b917b7a852","amp;dn":"Warcraft+%282016%29+720p+WebHD+x264+Hindi+-+dubbed+AC3+2.0+-DDR","amp;tr":["udp%3A%2F%2Ftracker.leechers-paradise.org%3A6969","udp%3A%2F%2Fzer0day.ch%3A1337","udp%3A%2F%2Fopen.demonii.com%3A1337","udp%3A%2F%2Ftracker.coppersurfer.tk%3A6969","udp%3A%2F%2Fexodus.desync.com%3A6969"],"infoHash":"a615c63e4f9a731c18d78de767ac10b917b7a852","infoHashBuffer":{"type":"Buffer","data":[166,21,198,62,79,154,115,28,24,215,141,231,103,172,16,185,23,183,168,82]},"announce":[],"urlList":[]}}